<svg id="圖層_1" data-name="圖層 1" xmlns="http://www.w3.org/2000/svg" viewBox="0 0 200 200"><defs>
<style>
@keyframes moveAround {
    0% { transform: translate(0, 0) rotate(0deg); ; }
    25% { transform: translate(30px, 0) rotate(5deg); }
    50% { transform: translate(0, 20px) rotate(0deg); }
    60% { transform: translate(-10px, 5px) rotate(-5deg); }
    75% { transform: translate(15px, -15px) rotate(5deg);; }
    100% { transform: translate(0, 0) rotate(0deg); }
}

@keyframes moveAroundB {
    0% { transform: translate(0, 0) rotate(0deg); ; }
    25% { transform: translate(5px, 5px) rotate(5deg); }
    50% { transform: translate(0, 15px) rotate(-3deg); }
    60% { transform: translate(-5px, 5px) rotate(5deg); }
    75% { transform: translate(10px, -10px) rotate(-3deg); }
    90% { transform: translate(5px, 0) rotate(-5pxdeg); }
    100% { transform: translate(0, 0) rotate(0deg); }
}
.logo-cls-1 {
  fill:#222525;
  animation: moveAround 1.5s infinite alternate ease-in;
}
.logo-cls-2 {
  fill:#fed996;
  animation: moveAroundB 1.8s infinite alternate-reverse;
}

.logo-cls-3{
  fill:#d39fa8;
  animation: moveAroundB 2.2s infinite alternate ease-in-out;
}

.logo-cls-4{
  fill:#f2f2f2;
  animation: moveAround 1.8s infinite alternate-reverse;
}


</style></defs><path class="logo-cls-1" d="M55,25h90a30,30,0,0,1,30,30v90a30,30,0,0,1-30,30H55a30,30,0,0,1-30-30V55A30,30,0,0,1,55,25Z"/><path class="logo-cls-2" d="M54.8,87.1H142A12.93,12.93,0,0,1,154.9,100v38.7A12.93,12.93,0,0,1,142,151.6H54.8a12.93,12.93,0,0,1-12.9-12.9V100A12.93,12.93,0,0,1,54.8,87.1Z"/><circle class="logo-cls-3" cx="54.8" cy="64.5" r="12.9"/><path class="logo-cls-4" d="M83.9,54.8h61.3a9.71,9.71,0,0,1,9.7,9.7h0a9.71,9.71,0,0,1-9.7,9.7H83.9a9.71,9.71,0,0,1-9.7-9.7h0A9.65,9.65,0,0,1,83.9,54.8Z"/></svg>