<svg id="圖層_1" data-name="圖層 1" xmlns="http://www.w3.org/2000/svg" viewBox="0 0 200 200"><defs><style>.cls-1{fill:#4c4c4c;}</style></defs><path class="cls-1" d="M28.45,33.45a5.42,5.42,0,0,0-2.85,2.73c-.54,1.19-.6,2.32-.6,15.94V66.77l1.51-.66a11.66,11.66,0,0,1,4.08-.81l2.57-.16V62.85a10.63,10.63,0,0,1,6.37-10h0a9.65,9.65,0,0,1,4.09-.91H156.38a9.65,9.65,0,0,1,4.09.91h0a10.63,10.63,0,0,1,6.37,10v2.29l2.61.16a12.07,12.07,0,0,1,4.08.81l1.47.66V58.86c0-7-.09-8.06-.6-9.16a6.52,6.52,0,0,0-1.22-1.82c-1.63-1.47-.66-1.44-42.3-1.47-38.32,0-39.32,0-41.27-.63-3-.91-4.58-2-10.45-6.87-3.83-3.17-5.77-4.59-7-5.06-1.64-.59-2.36-.62-22.47-.59C38.27,33.26,28.7,33.35,28.45,33.45Z"/><path class="cls-1" d="M42.6,57.39a5.58,5.58,0,0,0-3.38,2.51,4.7,4.7,0,0,0-.73,3.17v2.16H161.57l-.13-2.32c-.06-1.76-.28-2.57-.75-3.2a5.64,5.64,0,0,0-3.45-2.32C155.73,57,44.11,57,42.6,57.39Z"/><path class="cls-1" d="M28.64,70.88a6.16,6.16,0,0,0-3.2,3.05c-.38.84-.44,8.31-.44,44.87,0,42.11,0,43.93.6,45.16a5.8,5.8,0,0,0,1.63,2l1.06.75H171.71l1.06-.75a5.8,5.8,0,0,0,1.63-2c.57-1.23.6-3.05.6-45.13,0-30.15-.09-44.09-.35-44.72a6.09,6.09,0,0,0-3.42-3.23C169.85,70.51,30,70.51,28.64,70.88Z"/></svg>