<svg id="a9579da1-c955-472a-84ce-05b14ae7475b" data-name="圖層 1" xmlns="http://www.w3.org/2000/svg" viewBox="0 0 300 300"><defs><style>.b1be5e82-ecd5-4b27-a697-ce209c9f02d7{fill:#eeedeb;}</style></defs><path class="b1be5e82-ecd5-4b27-a697-ce209c9f02d7" d="M79.635,29.122a1,1,0,0,1-.867-.5L74.134,20.6a1,1,0,0,1,1.732-1L80.5,27.622a1,1,0,0,1-.865,1.5Z"/><path class="b1be5e82-ecd5-4b27-a697-ce209c9f02d7" d="M134.812,6.506a1,1,0,0,1-.993-.9L133.326.926a1,1,0,0,1,1.989-.209l.493,4.685a1,1,0,0,1-.89,1.1A.955.955,0,0,1,134.812,6.506Z"/><path class="b1be5e82-ecd5-4b27-a697-ce209c9f02d7" d="M119.792,8.885a1,1,0,0,1-.977-.792l-.98-4.607a1,1,0,1,1,1.956-.416l.98,4.607A1,1,0,0,1,120,8.864,1.074,1.074,0,0,1,119.792,8.885Z"/><path class="b1be5e82-ecd5-4b27-a697-ce209c9f02d7" d="M105.1,12.822a1,1,0,0,1-.951-.692L102.7,7.65a1,1,0,0,1,1.9-.618l1.456,4.481a1,1,0,0,1-.951,1.309Z"/><path class="b1be5e82-ecd5-4b27-a697-ce209c9f02d7" d="M90.906,18.272a1,1,0,0,1-.914-.594l-1.916-4.3a1,1,0,0,1,1.827-.812l1.916,4.3a1,1,0,0,1-.913,1.407Z"/><path class="b1be5e82-ecd5-4b27-a697-ce209c9f02d7" d="M64.6,33.458a1,1,0,0,1-.81-.412l-2.769-3.81a1,1,0,1,1,1.618-1.176l2.769,3.81a1,1,0,0,1-.808,1.588Z"/><path class="b1be5e82-ecd5-4b27-a697-ce209c9f02d7" d="M52.783,43.029a1,1,0,0,1-.744-.331l-3.152-3.5a1,1,0,1,1,1.487-1.338l3.152,3.5a1,1,0,0,1-.743,1.669Z"/><path class="b1be5e82-ecd5-4b27-a697-ce209c9f02d7" d="M42.028,53.782a.994.994,0,0,1-.668-.256l-3.5-3.153A1,1,0,1,1,39.2,48.887l3.5,3.152a1,1,0,0,1-.67,1.743Z"/><path class="b1be5e82-ecd5-4b27-a697-ce209c9f02d7" d="M32.457,65.6a.992.992,0,0,1-.587-.192l-3.811-2.768a1,1,0,1,1,1.176-1.617l3.811,2.768a1,1,0,0,1-.589,1.809Z"/><path class="b1be5e82-ecd5-4b27-a697-ce209c9f02d7" d="M17.271,91.906a1,1,0,0,1-.407-.087l-4.3-1.916a1,1,0,1,1,.814-1.827l4.3,1.916a1,1,0,0,1-.407,1.914Z"/><path class="b1be5e82-ecd5-4b27-a697-ce209c9f02d7" d="M11.822,106.1a1.013,1.013,0,0,1-.31-.049L7.032,104.6a1,1,0,1,1,.619-1.9l4.48,1.455a1,1,0,0,1-.309,1.951Z"/><path class="b1be5e82-ecd5-4b27-a697-ce209c9f02d7" d="M7.886,120.792a1.081,1.081,0,0,1-.209-.021l-4.607-.98a1,1,0,0,1,.416-1.957l4.607.98a1,1,0,0,1-.207,1.978Z"/><path class="b1be5e82-ecd5-4b27-a697-ce209c9f02d7" d="M5.507,135.813a.924.924,0,0,1-.1-.006l-4.685-.492a1,1,0,1,1,.209-1.989l4.685.493a1,1,0,0,1-.1,1.994Z"/><path class="b1be5e82-ecd5-4b27-a697-ce209c9f02d7" d="M.821,166.679a1,1,0,0,1-.1-1.994l4.685-.492a.99.99,0,0,1,1.1.889,1,1,0,0,1-.89,1.1l-4.685.492A.951.951,0,0,1,.821,166.679Z"/><path class="b1be5e82-ecd5-4b27-a697-ce209c9f02d7" d="M3.277,182.187a1,1,0,0,1-.207-1.979l4.607-.979a1,1,0,1,1,.416,1.957l-4.607.979A1,1,0,0,1,3.277,182.187Z"/><path class="b1be5e82-ecd5-4b27-a697-ce209c9f02d7" d="M7.342,197.353a1,1,0,0,1-.31-1.951l4.48-1.456a1,1,0,1,1,.619,1.9L7.651,197.3A1.012,1.012,0,0,1,7.342,197.353Z"/><path class="b1be5e82-ecd5-4b27-a697-ce209c9f02d7" d="M12.968,212.01a1,1,0,0,1-.407-1.914l4.3-1.915a1,1,0,0,1,.814,1.828l-4.3,1.915A1,1,0,0,1,12.968,212.01Z"/><path class="b1be5e82-ecd5-4b27-a697-ce209c9f02d7" d="M28.648,239.168a1,1,0,0,1-.589-1.808l3.811-2.77a1,1,0,1,1,1.176,1.617l-3.811,2.77A1,1,0,0,1,28.648,239.168Z"/><path class="b1be5e82-ecd5-4b27-a697-ce209c9f02d7" d="M38.529,251.369a1,1,0,0,1-.67-1.743l3.5-3.151a1,1,0,0,1,1.338,1.486l-3.5,3.152A1,1,0,0,1,38.529,251.369Z"/><path class="b1be5e82-ecd5-4b27-a697-ce209c9f02d7" d="M49.63,262.472a1,1,0,0,1-.743-1.669l3.152-3.5a1,1,0,0,1,1.487,1.338l-3.152,3.5A1,1,0,0,1,49.63,262.472Z"/><path class="b1be5e82-ecd5-4b27-a697-ce209c9f02d7" d="M61.831,272.353a1,1,0,0,1-.808-1.588l2.769-3.812a1,1,0,1,1,1.618,1.176l-2.769,3.812A1,1,0,0,1,61.831,272.353Z"/><path class="b1be5e82-ecd5-4b27-a697-ce209c9f02d7" d="M88.989,288.032a1,1,0,0,1-.913-1.408l1.916-4.3a1,1,0,0,1,1.827.814l-1.916,4.3A1,1,0,0,1,88.989,288.032Z"/><path class="b1be5e82-ecd5-4b27-a697-ce209c9f02d7" d="M103.647,293.658a1,1,0,0,1-.951-1.309l1.456-4.48a1,1,0,0,1,1.9.62l-1.456,4.479A1,1,0,0,1,103.647,293.658Z"/><path class="b1be5e82-ecd5-4b27-a697-ce209c9f02d7" d="M118.814,297.722a1,1,0,0,1-.979-1.208l.98-4.607a1,1,0,1,1,1.956.416l-.98,4.607A1,1,0,0,1,118.814,297.722Z"/><path class="b1be5e82-ecd5-4b27-a697-ce209c9f02d7" d="M134.322,300.178a.955.955,0,0,1-.106-.006,1,1,0,0,1-.89-1.1l.493-4.685a1,1,0,0,1,1.989.209l-.493,4.684A1,1,0,0,1,134.322,300.178Z"/><path class="b1be5e82-ecd5-4b27-a697-ce209c9f02d7" d="M165.678,300.178a1,1,0,0,1-.993-.9l-.493-4.684a1,1,0,0,1,1.989-.209l.493,4.685a1,1,0,0,1-.89,1.1A.955.955,0,0,1,165.678,300.178Z"/><path class="b1be5e82-ecd5-4b27-a697-ce209c9f02d7" d="M181.186,297.722a1,1,0,0,1-.977-.792l-.98-4.607a1,1,0,1,1,1.956-.416l.98,4.607a1,1,0,0,1-.979,1.208Z"/><path class="b1be5e82-ecd5-4b27-a697-ce209c9f02d7" d="M196.353,293.658a1,1,0,0,1-.951-.69l-1.456-4.479a1,1,0,0,1,1.9-.62l1.456,4.48a1,1,0,0,1-.951,1.309Z"/><path class="b1be5e82-ecd5-4b27-a697-ce209c9f02d7" d="M211.011,288.032a1,1,0,0,1-.914-.593l-1.916-4.3a1,1,0,0,1,1.827-.814l1.916,4.3a1,1,0,0,1-.913,1.408Z"/><path class="b1be5e82-ecd5-4b27-a697-ce209c9f02d7" d="M238.169,272.353a1,1,0,0,1-.81-.412l-2.769-3.812a1,1,0,1,1,1.618-1.176l2.769,3.812a1,1,0,0,1-.808,1.588Z"/><path class="b1be5e82-ecd5-4b27-a697-ce209c9f02d7" d="M250.37,262.472a1,1,0,0,1-.744-.331l-3.152-3.5a1,1,0,0,1,1.487-1.338l3.152,3.5a1,1,0,0,1-.743,1.669Z"/><path class="b1be5e82-ecd5-4b27-a697-ce209c9f02d7" d="M261.471,251.369a1,1,0,0,1-.668-.256l-3.5-3.152a1,1,0,0,1,1.338-1.486l3.5,3.151a1,1,0,0,1-.67,1.743Z"/><path class="b1be5e82-ecd5-4b27-a697-ce209c9f02d7" d="M271.352,239.168a1,1,0,0,1-.587-.191l-3.811-2.77a1,1,0,1,1,1.176-1.617l3.811,2.77a1,1,0,0,1-.589,1.808Z"/><path class="b1be5e82-ecd5-4b27-a697-ce209c9f02d7" d="M287.031,212.01a1,1,0,0,1-.406-.086l-4.3-1.915a1,1,0,0,1,.813-1.828l4.3,1.915a1,1,0,0,1-.408,1.914Z"/><path class="b1be5e82-ecd5-4b27-a697-ce209c9f02d7" d="M292.658,197.353a1.012,1.012,0,0,1-.309-.049l-4.48-1.456a1,1,0,1,1,.619-1.9l4.48,1.456a1,1,0,0,1-.31,1.951Z"/><path class="b1be5e82-ecd5-4b27-a697-ce209c9f02d7" d="M296.723,182.187a1,1,0,0,1-.209-.022l-4.608-.979a1,1,0,0,1,.417-1.957l4.607.979a1,1,0,0,1-.207,1.979Z"/><path class="b1be5e82-ecd5-4b27-a697-ce209c9f02d7" d="M299.179,166.679a.951.951,0,0,1-.1-.006l-4.685-.492a1,1,0,1,1,.209-1.988l4.685.492a1,1,0,0,1-.1,1.994Z"/><path class="b1be5e82-ecd5-4b27-a697-ce209c9f02d7" d="M28.121,80.634a1,1,0,0,1-.5-.134L19.6,75.866a1,1,0,0,1,1-1.732l8.026,4.634a1,1,0,0,1-.5,1.866Z"/><path class="b1be5e82-ecd5-4b27-a697-ce209c9f02d7" d="M9.268,151H0a1,1,0,0,1-1-1,1,1,0,0,1,1-1H9.268a1,1,0,0,1,0,2Z"/><path class="b1be5e82-ecd5-4b27-a697-ce209c9f02d7" d="M20.1,226a1,1,0,0,1-.5-1.866l8.026-4.634a1,1,0,1,1,1,1.733L20.6,225.866A.992.992,0,0,1,20.1,226Z"/><path class="b1be5e82-ecd5-4b27-a697-ce209c9f02d7" d="M75,280.9a1,1,0,0,1-.865-1.5l4.634-8.026a1,1,0,0,1,1.732,1L75.866,280.4A1,1,0,0,1,75,280.9Z"/><path class="b1be5e82-ecd5-4b27-a697-ce209c9f02d7" d="M150,301a1,1,0,0,1-1-1v-9.267a1,1,0,0,1,2,0V300A1,1,0,0,1,150,301Z"/><path class="b1be5e82-ecd5-4b27-a697-ce209c9f02d7" d="M225,280.9a1,1,0,0,1-.867-.5l-4.634-8.026a1,1,0,1,1,1.732-1l4.634,8.026a1,1,0,0,1-.865,1.5Z"/><path class="b1be5e82-ecd5-4b27-a697-ce209c9f02d7" d="M279.9,226a1,1,0,0,1-.5-.134l-8.026-4.633a1,1,0,1,1,1-1.733l8.026,4.634a1,1,0,0,1-.5,1.866Z"/><path class="b1be5e82-ecd5-4b27-a697-ce209c9f02d7" d="M300,151h-9.268a1,1,0,0,1,0-2H300a1,1,0,0,1,0,2Z"/><path class="b1be5e82-ecd5-4b27-a697-ce209c9f02d7" d="M271.879,80.634a1,1,0,0,1-.5-1.866l8.026-4.634a1,1,0,0,1,1,1.732L272.378,80.5A1,1,0,0,1,271.879,80.634Z"/><path class="b1be5e82-ecd5-4b27-a697-ce209c9f02d7" d="M220.365,29.122a1,1,0,0,1-.865-1.5l4.634-8.026a1,1,0,0,1,1.732,1l-4.634,8.026A1,1,0,0,1,220.365,29.122Z"/><path class="b1be5e82-ecd5-4b27-a697-ce209c9f02d7" d="M150,10.268a1,1,0,0,1-1-1V0a1,1,0,0,1,2,0V9.268A1,1,0,0,1,150,10.268Z"/><path class="b1be5e82-ecd5-4b27-a697-ce209c9f02d7" d="M294.493,135.813a1,1,0,0,1-.1-1.994l4.685-.493a1,1,0,1,1,.209,1.989l-4.685.492A.924.924,0,0,1,294.493,135.813Z"/><path class="b1be5e82-ecd5-4b27-a697-ce209c9f02d7" d="M292.114,120.792a1,1,0,0,1-.208-1.978l4.608-.98a1,1,0,0,1,.416,1.957l-4.607.98A1.081,1.081,0,0,1,292.114,120.792Z"/><path class="b1be5e82-ecd5-4b27-a697-ce209c9f02d7" d="M288.178,106.1a1,1,0,0,1-.309-1.951l4.48-1.455a1,1,0,1,1,.619,1.9l-4.48,1.455A1.013,1.013,0,0,1,288.178,106.1Z"/><path class="b1be5e82-ecd5-4b27-a697-ce209c9f02d7" d="M282.729,91.906a1,1,0,0,1-.407-1.914l4.3-1.916a1,1,0,1,1,.814,1.827l-4.3,1.916A.993.993,0,0,1,282.729,91.906Z"/><path class="b1be5e82-ecd5-4b27-a697-ce209c9f02d7" d="M267.543,65.6a1,1,0,0,1-.589-1.809l3.811-2.768a1,1,0,1,1,1.176,1.617l-3.811,2.768A1,1,0,0,1,267.543,65.6Z"/><path class="b1be5e82-ecd5-4b27-a697-ce209c9f02d7" d="M257.972,53.782a1,1,0,0,1-.67-1.743l3.5-3.152a1,1,0,0,1,1.338,1.486l-3.5,3.153A1,1,0,0,1,257.972,53.782Z"/><path class="b1be5e82-ecd5-4b27-a697-ce209c9f02d7" d="M247.217,43.029a1,1,0,0,1-.743-1.669l3.152-3.5a1,1,0,1,1,1.487,1.338l-3.152,3.5A1,1,0,0,1,247.217,43.029Z"/><path class="b1be5e82-ecd5-4b27-a697-ce209c9f02d7" d="M235.4,33.458a1,1,0,0,1-.808-1.588l2.769-3.81a1,1,0,0,1,1.618,1.176l-2.769,3.81A1,1,0,0,1,235.4,33.458Z"/><path class="b1be5e82-ecd5-4b27-a697-ce209c9f02d7" d="M209.094,18.272a1,1,0,0,1-.913-1.407l1.916-4.3a1,1,0,0,1,1.827.812l-1.916,4.3A1,1,0,0,1,209.094,18.272Z"/><path class="b1be5e82-ecd5-4b27-a697-ce209c9f02d7" d="M194.9,12.822a1,1,0,0,1-.951-1.309L195.4,7.032a1,1,0,1,1,1.9.618l-1.456,4.48A1,1,0,0,1,194.9,12.822Z"/><path class="b1be5e82-ecd5-4b27-a697-ce209c9f02d7" d="M180.208,8.885A1.074,1.074,0,0,1,180,8.864a1,1,0,0,1-.77-1.187l.98-4.607a1,1,0,1,1,1.956.416l-.98,4.607A1,1,0,0,1,180.208,8.885Z"/><path class="b1be5e82-ecd5-4b27-a697-ce209c9f02d7" d="M165.188,6.506a.955.955,0,0,1-.106-.006,1,1,0,0,1-.89-1.1l.493-4.685a1,1,0,1,1,1.989.209l-.493,4.685A1,1,0,0,1,165.188,6.506Z"/><path class="b1be5e82-ecd5-4b27-a697-ce209c9f02d7" d="M149.954,20.069a3.019,3.019,0,0,1,2.509,1.145,7.316,7.316,0,0,1,1.078,4.5,7.329,7.329,0,0,1-1.085,4.5,3.013,3.013,0,0,1-2.5,1.13,3.162,3.162,0,0,1-2.6-1.239q-.987-1.239-.987-4.418a7.3,7.3,0,0,1,1.085-4.491A3.015,3.015,0,0,1,149.954,20.069Zm0,1.756a1.053,1.053,0,0,0-.685.245,1.636,1.636,0,0,0-.467.877,12.081,12.081,0,0,0-.219,2.765,12.055,12.055,0,0,0,.2,2.671,1.88,1.88,0,0,0,.494.968,1.083,1.083,0,0,0,1.367,0,1.639,1.639,0,0,0,.467-.878,11.964,11.964,0,0,0,.219-2.757,12.055,12.055,0,0,0-.2-2.671,1.9,1.9,0,0,0-.494-.971A1.037,1.037,0,0,0,149.954,21.825Z"/><path class="b1be5e82-ecd5-4b27-a697-ce209c9f02d7" d="M80.141,44.893l2.109-.219a1.816,1.816,0,0,0,.535,1.134,1.452,1.452,0,0,0,1.025.418,1.425,1.425,0,0,0,1.123-.539,2.452,2.452,0,0,0,.459-1.623,2.225,2.225,0,0,0-.456-1.526,1.518,1.518,0,0,0-1.186-.508,2.154,2.154,0,0,0-1.635.806L80.4,42.587l1.085-5.748h5.6V38.82H83.087L82.755,40.7a3.236,3.236,0,0,1,3.835.671,3.688,3.688,0,0,1,.979,2.659,3.987,3.987,0,0,1-.791,2.434,3.507,3.507,0,0,1-2.991,1.461,3.714,3.714,0,0,1-2.493-.821A3.382,3.382,0,0,1,80.141,44.893Z"/><path class="b1be5e82-ecd5-4b27-a697-ce209c9f02d7" d="M88.722,44.893l2.109-.219a1.816,1.816,0,0,0,.535,1.134,1.452,1.452,0,0,0,1.025.418,1.422,1.422,0,0,0,1.122-.539,2.446,2.446,0,0,0,.46-1.623,2.225,2.225,0,0,0-.456-1.526,1.518,1.518,0,0,0-1.186-.508,2.154,2.154,0,0,0-1.635.806l-1.718-.249,1.085-5.748h5.6V38.82H91.668L91.336,40.7a3.236,3.236,0,0,1,3.835.671,3.688,3.688,0,0,1,.979,2.659,3.987,3.987,0,0,1-.791,2.434,3.507,3.507,0,0,1-2.991,1.461,3.712,3.712,0,0,1-2.493-.821A3.382,3.382,0,0,1,88.722,44.893Z"/><path class="b1be5e82-ecd5-4b27-a697-ce209c9f02d7" d="M34.835,90.256l2.109-.219a1.811,1.811,0,0,0,.535,1.134,1.449,1.449,0,0,0,1.024.418,1.42,1.42,0,0,0,1.123-.539,2.452,2.452,0,0,0,.46-1.623A2.225,2.225,0,0,0,39.63,87.9a1.52,1.52,0,0,0-1.187-.508,2.155,2.155,0,0,0-1.635.806l-1.717-.249L36.176,82.2h5.6v1.981H37.78l-.331,1.876a3.235,3.235,0,0,1,3.834.671,3.688,3.688,0,0,1,.98,2.659,3.994,3.994,0,0,1-.791,2.434,3.507,3.507,0,0,1-2.991,1.461,3.715,3.715,0,0,1-2.494-.821A3.377,3.377,0,0,1,34.835,90.256Z"/><path class="b1be5e82-ecd5-4b27-a697-ce209c9f02d7" d="M46.964,82.006a3.019,3.019,0,0,1,2.509,1.145,7.315,7.315,0,0,1,1.077,4.5,7.329,7.329,0,0,1-1.085,4.5,3.014,3.014,0,0,1-2.5,1.13,3.161,3.161,0,0,1-2.6-1.239q-.987-1.239-.987-4.419a7.292,7.292,0,0,1,1.085-4.49A3.012,3.012,0,0,1,46.964,82.006Zm0,1.756a1.06,1.06,0,0,0-.686.244,1.65,1.65,0,0,0-.467.878,12.155,12.155,0,0,0-.218,2.765,11.993,11.993,0,0,0,.2,2.671,1.88,1.88,0,0,0,.493.968,1.083,1.083,0,0,0,1.367,0,1.639,1.639,0,0,0,.467-.878,11.964,11.964,0,0,0,.219-2.757,11.993,11.993,0,0,0-.2-2.671,1.909,1.909,0,0,0-.493-.972A1.045,1.045,0,0,0,46.964,83.762Z"/><path class="b1be5e82-ecd5-4b27-a697-ce209c9f02d7" d="M22.372,155.033V152.81h-4.52v-1.853l4.791-7.014h1.778v7.006h1.371v1.861H24.421v2.223Zm0-4.084v-3.774l-2.539,3.774Z"/><path class="b1be5e82-ecd5-4b27-a697-ce209c9f02d7" d="M26.832,152.192l2.109-.218a1.811,1.811,0,0,0,.535,1.134,1.454,1.454,0,0,0,1.025.418,1.422,1.422,0,0,0,1.122-.539,2.446,2.446,0,0,0,.46-1.623,2.225,2.225,0,0,0-.456-1.526,1.518,1.518,0,0,0-1.187-.508,2.153,2.153,0,0,0-1.634.806l-1.718-.249,1.085-5.748h5.6v1.981H29.777L29.446,148a3.236,3.236,0,0,1,3.835.671,3.692,3.692,0,0,1,.979,2.659,3.989,3.989,0,0,1-.791,2.433,3.505,3.505,0,0,1-2.991,1.462,3.715,3.715,0,0,1-2.494-.821A3.379,3.379,0,0,1,26.832,152.192Z"/><path class="b1be5e82-ecd5-4b27-a697-ce209c9f02d7" d="M39,216.968v-2.222H34.481v-1.853l4.792-7.014h1.778v7.006h1.371v1.861H41.051v2.222Zm0-4.083v-3.774l-2.539,3.774Z"/><path class="b1be5e82-ecd5-4b27-a697-ce209c9f02d7" d="M47.01,205.879a3.019,3.019,0,0,1,2.509,1.145,9.913,9.913,0,0,1-.008,9,3.014,3.014,0,0,1-2.5,1.13,3.159,3.159,0,0,1-2.6-1.24q-.987-1.239-.987-4.418a7.292,7.292,0,0,1,1.085-4.49A3.012,3.012,0,0,1,47.01,205.879Zm0,1.755a1.061,1.061,0,0,0-.686.245,1.646,1.646,0,0,0-.467.878,12.149,12.149,0,0,0-.218,2.765,11.982,11.982,0,0,0,.2,2.67,1.872,1.872,0,0,0,.493.968,1.085,1.085,0,0,0,1.367,0,1.65,1.65,0,0,0,.468-.878,17.906,17.906,0,0,0,.022-5.428,1.9,1.9,0,0,0-.493-.972A1.046,1.046,0,0,0,47.01,207.634Z"/><path class="b1be5e82-ecd5-4b27-a697-ce209c9f02d7" d="M80.048,259.379l2.049-.248a1.937,1.937,0,0,0,.527,1.2,1.492,1.492,0,0,0,2.144-.082,1.933,1.933,0,0,0,.448-1.341,1.794,1.794,0,0,0-.43-1.266,1.369,1.369,0,0,0-1.047-.467,3.716,3.716,0,0,0-.972.158L83,255.605a1.855,1.855,0,0,0,1.311-.373,1.329,1.329,0,0,0,.452-1.051,1.142,1.142,0,0,0-1.213-1.221,1.276,1.276,0,0,0-.927.377,1.769,1.769,0,0,0-.467,1.1l-1.951-.331a4.361,4.361,0,0,1,.614-1.6,2.769,2.769,0,0,1,1.145-.942,3.839,3.839,0,0,1,1.646-.343,3.282,3.282,0,0,1,2.5,1,2.517,2.517,0,0,1-.813,4.158,2.574,2.574,0,0,1,1.518.912,2.646,2.646,0,0,1,.569,1.71,3.316,3.316,0,0,1-1.063,2.479,3.968,3.968,0,0,1-5.13.162A3.392,3.392,0,0,1,80.048,259.379Z"/><path class="b1be5e82-ecd5-4b27-a697-ce209c9f02d7" d="M88.734,259.47l2.11-.219a1.81,1.81,0,0,0,.534,1.134,1.452,1.452,0,0,0,1.025.418,1.422,1.422,0,0,0,1.123-.539,2.452,2.452,0,0,0,.459-1.623,2.225,2.225,0,0,0-.456-1.526,1.518,1.518,0,0,0-1.186-.508,2.157,2.157,0,0,0-1.635.806l-1.718-.249,1.085-5.748h5.6V253.4H91.68l-.332,1.876a3.236,3.236,0,0,1,3.835.671,3.688,3.688,0,0,1,.979,2.659,3.987,3.987,0,0,1-.791,2.434A3.507,3.507,0,0,1,92.38,262.5a3.714,3.714,0,0,1-2.493-.821A3.382,3.382,0,0,1,88.734,259.47Z"/><path class="b1be5e82-ecd5-4b27-a697-ce209c9f02d7" d="M142.018,275.975l2.049-.249a1.936,1.936,0,0,0,.528,1.2,1.492,1.492,0,0,0,2.143-.083,1.925,1.925,0,0,0,.448-1.341,1.8,1.8,0,0,0-.429-1.266,1.372,1.372,0,0,0-1.047-.467,3.7,3.7,0,0,0-.972.158l.233-1.725a1.853,1.853,0,0,0,1.311-.373,1.328,1.328,0,0,0,.452-1.051,1.14,1.14,0,0,0-1.213-1.22,1.272,1.272,0,0,0-.926.377,1.767,1.767,0,0,0-.468,1.1l-1.951-.332a4.361,4.361,0,0,1,.614-1.6,2.784,2.784,0,0,1,1.145-.942,3.856,3.856,0,0,1,1.646-.342,3.285,3.285,0,0,1,2.5.994,2.518,2.518,0,0,1-.814,4.159,2.567,2.567,0,0,1,1.518.911,2.646,2.646,0,0,1,.569,1.71,3.317,3.317,0,0,1-1.062,2.479,3.966,3.966,0,0,1-5.131.162A3.387,3.387,0,0,1,142.018,275.975Z"/><path class="b1be5e82-ecd5-4b27-a697-ce209c9f02d7" d="M154.253,267.816a3.013,3.013,0,0,1,2.508,1.145,9.909,9.909,0,0,1-.007,9,3.014,3.014,0,0,1-2.5,1.13,3.159,3.159,0,0,1-2.6-1.24q-.987-1.239-.987-4.418a7.29,7.29,0,0,1,1.085-4.49A3.01,3.01,0,0,1,154.253,267.816Zm0,1.755a1.061,1.061,0,0,0-.686.245,1.646,1.646,0,0,0-.467.878,18,18,0,0,0-.023,5.435,1.883,1.883,0,0,0,.494.968,1.083,1.083,0,0,0,1.367,0,1.636,1.636,0,0,0,.467-.877,17.864,17.864,0,0,0,.023-5.428,1.908,1.908,0,0,0-.493-.972A1.046,1.046,0,0,0,154.253,269.571Z"/><path class="b1be5e82-ecd5-4b27-a697-ce209c9f02d7" d="M211.168,260.344v1.966h-7.42a5.1,5.1,0,0,1,.723-2.113,14,14,0,0,1,2.381-2.648,14.924,14.924,0,0,0,1.755-1.809,2.329,2.329,0,0,0,.437-1.3,1.474,1.474,0,0,0-.381-1.089,1.617,1.617,0,0,0-2.105.019,2.05,2.05,0,0,0-.452,1.326L204,254.49a3.461,3.461,0,0,1,1.183-2.509,3.974,3.974,0,0,1,2.486-.761,3.592,3.592,0,0,1,2.569.882,2.889,2.889,0,0,1,.934,2.192,3.82,3.82,0,0,1-.267,1.42,5.768,5.768,0,0,1-.848,1.413,13.523,13.523,0,0,1-1.386,1.408q-1,.92-1.269,1.221a3.582,3.582,0,0,0-.433.588Z"/><path class="b1be5e82-ecd5-4b27-a697-ce209c9f02d7" d="M212.63,259.47l2.109-.219a1.816,1.816,0,0,0,.535,1.134,1.452,1.452,0,0,0,1.025.418,1.419,1.419,0,0,0,1.122-.539,2.446,2.446,0,0,0,.46-1.623,2.225,2.225,0,0,0-.456-1.526,1.518,1.518,0,0,0-1.186-.508,2.157,2.157,0,0,0-1.635.806l-1.718-.249,1.085-5.748h5.6V253.4h-3.992l-.332,1.876a3.236,3.236,0,0,1,3.835.671,3.688,3.688,0,0,1,.979,2.659,3.994,3.994,0,0,1-.791,2.434,3.507,3.507,0,0,1-2.991,1.461,3.712,3.712,0,0,1-2.493-.821A3.378,3.378,0,0,1,212.63,259.47Z"/><path class="b1be5e82-ecd5-4b27-a697-ce209c9f02d7" d="M256.543,215v1.966h-7.421a5.105,5.105,0,0,1,.723-2.113,14.1,14.1,0,0,1,2.381-2.648,15.021,15.021,0,0,0,1.755-1.808,2.332,2.332,0,0,0,.437-1.3,1.473,1.473,0,0,0-.38-1.088,1.617,1.617,0,0,0-2.106.018,2.054,2.054,0,0,0-.452,1.326l-2.109-.211a3.454,3.454,0,0,1,1.182-2.508,3.968,3.968,0,0,1,2.486-.761,3.594,3.594,0,0,1,2.569.881,2.893,2.893,0,0,1,.935,2.193,3.825,3.825,0,0,1-.268,1.42,5.788,5.788,0,0,1-.847,1.412,13.543,13.543,0,0,1-1.387,1.409q-1,.919-1.269,1.221a3.592,3.592,0,0,0-.433.587Z"/><path class="b1be5e82-ecd5-4b27-a697-ce209c9f02d7" d="M261.553,205.879a3.017,3.017,0,0,1,2.508,1.145,9.909,9.909,0,0,1-.007,9,3.015,3.015,0,0,1-2.5,1.13,3.161,3.161,0,0,1-2.6-1.24q-.987-1.239-.986-4.418a7.3,7.3,0,0,1,1.084-4.49A3.016,3.016,0,0,1,261.553,205.879Zm0,1.755a1.059,1.059,0,0,0-.686.245,1.639,1.639,0,0,0-.467.878,17.911,17.911,0,0,0-.023,5.435,1.871,1.871,0,0,0,.494.968,1.085,1.085,0,0,0,1.367,0,1.643,1.643,0,0,0,.467-.878,17.864,17.864,0,0,0,.023-5.428,1.9,1.9,0,0,0-.494-.972A1.042,1.042,0,0,0,261.553,207.634Z"/><path class="b1be5e82-ecd5-4b27-a697-ce209c9f02d7" d="M271.275,155.033h-2.117v-7.979a7.28,7.28,0,0,1-2.734,1.6v-1.921a6.147,6.147,0,0,0,1.8-1.028,3.91,3.91,0,0,0,1.334-1.767h1.717Z"/><path class="b1be5e82-ecd5-4b27-a697-ce209c9f02d7" d="M274.47,152.192l2.109-.218a1.811,1.811,0,0,0,.535,1.134,1.454,1.454,0,0,0,1.025.418,1.422,1.422,0,0,0,1.122-.539,2.446,2.446,0,0,0,.46-1.623,2.225,2.225,0,0,0-.456-1.526,1.518,1.518,0,0,0-1.187-.508,2.153,2.153,0,0,0-1.634.806l-1.718-.249,1.085-5.748h5.6v1.981h-3.993L277.084,148a3.236,3.236,0,0,1,3.835.671,3.692,3.692,0,0,1,.979,2.659,3.989,3.989,0,0,1-.791,2.433,3.505,3.505,0,0,1-2.991,1.462,3.715,3.715,0,0,1-2.494-.821A3.379,3.379,0,0,1,274.47,152.192Z"/><path class="b1be5e82-ecd5-4b27-a697-ce209c9f02d7" d="M254.713,93.1H252.6V85.118a7.291,7.291,0,0,1-2.734,1.6V84.8a6.124,6.124,0,0,0,1.8-1.028A3.91,3.91,0,0,0,253,82.006h1.717Z"/><path class="b1be5e82-ecd5-4b27-a697-ce209c9f02d7" d="M261.456,82.006a3.019,3.019,0,0,1,2.509,1.145,7.315,7.315,0,0,1,1.077,4.5,7.322,7.322,0,0,1-1.085,4.5,3.012,3.012,0,0,1-2.5,1.13,3.161,3.161,0,0,1-2.6-1.239q-.987-1.239-.987-4.419a7.3,7.3,0,0,1,1.085-4.49A3.014,3.014,0,0,1,261.456,82.006Zm0,1.756a1.055,1.055,0,0,0-.685.244,1.65,1.65,0,0,0-.468.878,12.155,12.155,0,0,0-.218,2.765,11.993,11.993,0,0,0,.2,2.671,1.88,1.88,0,0,0,.493.968,1.084,1.084,0,0,0,1.368,0,1.646,1.646,0,0,0,.467-.878,12.036,12.036,0,0,0,.218-2.757,11.993,11.993,0,0,0-.2-2.671,1.909,1.909,0,0,0-.493-.972A1.045,1.045,0,0,0,261.456,83.762Z"/><path class="b1be5e82-ecd5-4b27-a697-ce209c9f02d7" d="M208.305,44.893l2.109-.219a1.811,1.811,0,0,0,.535,1.134,1.45,1.45,0,0,0,1.025.418,1.422,1.422,0,0,0,1.122-.539,2.452,2.452,0,0,0,.46-1.623,2.225,2.225,0,0,0-.456-1.526,1.52,1.52,0,0,0-1.187-.508,2.157,2.157,0,0,0-1.635.806l-1.717-.249,1.085-5.748h5.6V38.82H211.25l-.331,1.876a3.236,3.236,0,0,1,3.835.671,3.692,3.692,0,0,1,.979,2.659,3.994,3.994,0,0,1-.791,2.434,3.507,3.507,0,0,1-2.991,1.461,3.715,3.715,0,0,1-2.494-.821A3.377,3.377,0,0,1,208.305,44.893Z"/></svg>