<svg id="aace8363-fcfe-4afd-bbff-4e1d971f3cf2" data-name="圖層 1" xmlns="http://www.w3.org/2000/svg" viewBox="0 0 300 300"><defs><style>.b37d9ebf-f95e-41ba-a838-3c45b101d003{fill:#3f3f3f;}</style></defs><path class="b37d9ebf-f95e-41ba-a838-3c45b101d003" d="M233.138,156.248a3.325,3.325,0,0,0,2.608,3.305,3.308,3.308,0,0,1,2.643,3.268,3.351,3.351,0,0,1-3.709,3.452h-.293a3.42,3.42,0,0,0-1.286,6.573,3.226,3.226,0,0,1,2.13,3.085,3.392,3.392,0,0,1-4.223,3.415,3.586,3.586,0,0,0-.881-.11,3.4,3.4,0,0,0-1.689,6.316,3.194,3.194,0,0,1,1.652,2.827,3.433,3.433,0,0,1-4.774,3.269,3.951,3.951,0,0,0-1.4-.294,3.429,3.429,0,0,0-2.13,6.022,3.273,3.273,0,0,1,1.249,2.571,3.438,3.438,0,0,1-5.251,2.974,3.526,3.526,0,0,0-1.8-.551,3.438,3.438,0,0,0-2.57,5.655,3.424,3.424,0,0,1-4.811,4.848,3.41,3.41,0,0,0-5.141,4.37,3.644,3.644,0,0,1,.551,1.836,3.45,3.45,0,0,1-6.059,2.166A3.275,3.275,0,0,0,195.388,220a3.428,3.428,0,0,0-3.195,4.774,3.278,3.278,0,0,1,.294,1.4c0,3.085-4.443,4.847-6.353,1.689a3.326,3.326,0,0,0-2.864-1.652,3.441,3.441,0,0,0-3.378,4.26,4.186,4.186,0,0,1,.11.918,3.44,3.44,0,0,1-6.61,1.175,3.246,3.246,0,0,0-3.085-2.13,3.37,3.37,0,0,0-3.452,3.709v.33c0,3.893-5.8,4.737-6.757.735a3.268,3.268,0,0,0-3.3-2.608,3.31,3.31,0,0,0-3.416,3.122A3.257,3.257,0,0,1,150,238.872a3.31,3.31,0,0,1-3.415-3.158,3.436,3.436,0,0,0-6.757-.514,3.256,3.256,0,0,1-3.268,2.644,3.37,3.37,0,0,1-3.452-3.709v-.294a3.416,3.416,0,0,0-6.573-1.285,3.279,3.279,0,0,1-3.085,2.13,3.369,3.369,0,0,1-3.378-4.223,3.649,3.649,0,0,0,.11-.882,3.439,3.439,0,0,0-6.353-1.726A3.236,3.236,0,0,1,111,229.508a3.386,3.386,0,0,1-3.231-4.737,3.794,3.794,0,0,0,.294-1.359,3.446,3.446,0,0,0-6.059-2.167,3.256,3.256,0,0,1-2.534,1.249,3.439,3.439,0,0,1-2.975-5.251,3.362,3.362,0,0,0,.514-1.8,3.433,3.433,0,0,0-5.655-2.57,3.4,3.4,0,0,1-2.2.844,3.449,3.449,0,0,1-2.607-5.692,3.4,3.4,0,0,0-4.407-5.1,3.625,3.625,0,0,1-1.8.551,3.475,3.475,0,0,1-2.2-6.1,3.253,3.253,0,0,0,1.249-2.534,3.428,3.428,0,0,0-4.774-3.194,3.976,3.976,0,0,1-1.395.293,3.452,3.452,0,0,1-1.689-6.389,3.272,3.272,0,0,0,1.652-2.828,3.4,3.4,0,0,0-4.223-3.378,3.647,3.647,0,0,1-.881.11,3.44,3.44,0,0,1-1.249-6.61,3.246,3.246,0,0,0,2.13-3.085,3.4,3.4,0,0,0-3.709-3.488h-.33a3.409,3.409,0,0,1-.735-6.72,3.408,3.408,0,0,0-.514-6.72,3.429,3.429,0,0,1,0-6.831,3.408,3.408,0,0,0,.514-6.72,3.248,3.248,0,0,1-2.607-3.268,3.34,3.34,0,0,1,3.672-3.452h.294a3.417,3.417,0,0,0,1.285-6.573,3.279,3.279,0,0,1-2.13-3.085,3.437,3.437,0,0,1,4.26-3.415,3.6,3.6,0,0,0,.881.11,3.409,3.409,0,0,0,1.69-6.316,3.274,3.274,0,0,1-1.653-2.827,3.4,3.4,0,0,1,4.737-3.268,3.981,3.981,0,0,0,1.4.293,3.422,3.422,0,0,0,2.129-6.022,3.214,3.214,0,0,1-1.211-2.534,3.426,3.426,0,0,1,5.214-3.011,3.647,3.647,0,0,0,1.836.551,3.439,3.439,0,0,0,2.571-5.656,3.411,3.411,0,0,1-.881-2.239,3.453,3.453,0,0,1,5.691-2.608,3.41,3.41,0,0,0,5.141-4.37,3.642,3.642,0,0,1-.55-1.836,3.448,3.448,0,0,1,6.059-2.166,3.255,3.255,0,0,0,2.533,1.248,3.46,3.46,0,0,0,3.232-4.774,3.293,3.293,0,0,1-.294-1.395c0-3.085,4.444-4.847,6.353-1.689a3.272,3.272,0,0,0,2.828,1.652,3.448,3.448,0,0,0,3.415-4.259,4.141,4.141,0,0,1-.11-.919,3.44,3.44,0,0,1,5.728-2.423l10.135-27.064L147.54,6.533c.7-1.873,4.149-1.873,4.847,0l11.751,31.434,10.135,27.064a3.111,3.111,0,0,1,2.2-.882,3.377,3.377,0,0,1,3.415,4.224,3.587,3.587,0,0,0-.111.881,3.439,3.439,0,0,0,6.353,1.726,3.237,3.237,0,0,1,2.828-1.653,3.386,3.386,0,0,1,3.231,4.737,3.981,3.981,0,0,0-.293,1.4,3.445,3.445,0,0,0,6.059,2.13,3.253,3.253,0,0,1,2.533-1.249,3.439,3.439,0,0,1,2.975,5.251,3.526,3.526,0,0,0-.551,1.8,3.46,3.46,0,0,0,5.692,2.57,3.4,3.4,0,0,1,2.2-.844,3.449,3.449,0,0,1,2.608,5.691,3.394,3.394,0,0,0,4.37,5.105,3.644,3.644,0,0,1,1.836-.551,3.459,3.459,0,0,1,2.166,6.1,3.331,3.331,0,0,0-1.212,2.534,3.414,3.414,0,0,0,4.737,3.2,3.961,3.961,0,0,1,1.4-.294c3.085,0,4.884,4.443,1.726,6.389a3.2,3.2,0,0,0-1.653,2.828,3.4,3.4,0,0,0,4.223,3.378,3.649,3.649,0,0,1,.882-.11,3.436,3.436,0,0,1,1.211,6.61,3.21,3.21,0,0,0-2.093,3.085,3.386,3.386,0,0,0,3.672,3.488h.331a3.4,3.4,0,0,1,.735,6.72,3.413,3.413,0,0,0,.55,6.72,3.426,3.426,0,0,1,0,6.831A3.341,3.341,0,0,0,233.138,156.248Z"/></svg>