<svg id="圖層_1" data-name="圖層 1" xmlns="http://www.w3.org/2000/svg" viewBox="0 0 77.95 77.95"><defs><style>.cls-1{fill:#005b86;}.cls-2{fill:#efefef;}.cls-3{fill:#ffd292;}.cls-4{fill:#d0939d;}</style></defs><rect class="cls-1" x="13.98" y="5.28" width="50" height="50" rx="10"/><path class="cls-2" d="M44.1,24.09l-8.83,0a3,3,0,0,1-3-3,2.94,2.94,0,0,1,.89-2.12,3,3,0,0,1,2.12-.87l4.31,0Z"/><path class="cls-2" d="M58.93,26.18a3,3,0,0,1-1.64,1.6,3.06,3.06,0,0,1-2.3,0l-9.33-4-1.77-7.3,13.48,5.83A3,3,0,0,1,58.93,26.18Z"/><path class="cls-3" d="M37.42,47.44l-1,16.78-9.46,3.25A4,4,0,0,1,21.86,65L18,53.65a4,4,0,0,1,2.48-5.08l8.14-2.8Z"/><path class="cls-3" d="M56.58,70.49,39.71,72.68l4.38-16.23,15.52,6.38L60,66A4,4,0,0,1,56.58,70.49Z"/><path class="cls-3" d="M54.28,55.29,35.38,37.77,53.3,41.92a4,4,0,0,1,3,4.81Z"/><circle class="cls-4" cx="25.71" cy="36.49" r="4"/></svg>