<?xml version="1.0" encoding="utf-8"?>
<!-- Generator: Adobe Illustrator 26.1.0, SVG Export Plug-In . SVG Version: 6.00 Build 0)  -->
<svg version="1.1" id="Layer_1" xmlns="http://www.w3.org/2000/svg" xmlns:xlink="http://www.w3.org/1999/xlink" x="0px" y="0px"
	 viewBox="0 0 50 50" style="enable-background:new 0 0 50 50;" xml:space="preserve">
<style type="text/css">
	.st0{fill:#222525;}
	.st1{fill:#FED996;}
	.st2{fill:#D39FA8;}
	.st3{fill:#F2F2F2;}
</style>
<path class="st0" d="M10,0h30c5.5,0,10,4.5,10,10v30c0,5.5-4.5,10-10,10H10C4.5,50,0,45.5,0,40V10C0,4.5,4.5,0,10,0z"/>
<path class="st1" d="M11,20.5h27c2.2,0,4,1.8,4,4v12c0,2.2-1.8,4-4,4H11c-2.2,0-4-1.8-4-4v-12C7,22.3,8.8,20.5,11,20.5z"/>
<circle class="st2" cx="11" cy="13.5" r="4"/>
<path class="st3" d="M20,10.5h19c1.7,0,3,1.3,3,3l0,0c0,1.7-1.3,3-3,3H20c-1.7,0-3-1.3-3-3l0,0C17,11.8,18.3,10.5,20,10.5z"/>
</svg>
